<?xml version="1.0" encoding="utf-8" ?>
<svg baseProfile="full" height="1024" version="1.1" width="1024" xmlns="http://www.w3.org/2000/svg" xmlns:ev="http://www.w3.org/2001/xml-events" xmlns:xlink="http://www.w3.org/1999/xlink"><defs /><polyline fill="none" points="504,232 503,233 486,233 485,234 476,234 475,235 468,235 467,236 463,236 462,237 458,237 457,238 453,238 452,239 448,239 447,240 444,240 443,241 440,241 439,242 436,242 435,243 433,243 432,244 429,244 428,245 426,245 425,246 424,246 423,247 421,247 420,248 418,248 417,249 415,249 414,250 413,250 412,251 410,251 409,252 408,252 407,253 405,253 404,254 403,254 402,255 401,255 400,256 398,256 397,257 396,257 395,258 394,258 393,259 392,259 391,260 390,260 389,261 388,261 387,262 386,262 384,264 382,264 380,266 379,266 378,267 377,267 375,269 374,269 373,270 372,270 370,272 369,272 367,274 366,274 364,276 363,276 361,278 360,278 357,281 356,281 354,283 353,283 351,285 350,285 347,288 346,288 342,292 341,292 336,297 335,297 323,309 322,309 313,318 313,319 305,327 305,328 299,334 299,335 295,339 295,340 292,343 292,344 290,346 290,347 287,350 287,351 285,353 285,354 283,356 283,357 281,359 281,360 279,362 279,363 278,364 278,365 277,366 277,367 275,369 275,370 274,371 274,372 272,374 272,375 271,376 271,377 270,378 270,379 269,380 269,381 268,382 268,383 266,385 266,386 265,387 265,388 264,389 264,390 263,391 263,392 262,393 262,394 261,395 261,397 260,398 260,400 258,402 258,404 257,405 257,406 256,407 256,409 255,410 255,411 254,412 254,414 253,415 253,417 252,418 252,419 251,420 251,422 250,423 250,425 249,426 249,428 248,429 248,431 247,432 247,434 246,435 246,437 245,438 245,440 244,441 244,444 243,445 243,448 242,449 242,451 241,452 241,456 240,457 240,461 239,462 239,466 238,467 238,471 237,472 237,479 236,480 236,487 235,488 235,498 234,499 234,525 235,526 235,539 236,540 236,548 237,549 237,556 238,557 238,562 239,563 239,567 240,568 240,572 241,573 241,577 242,578 242,581 243,582 243,584 244,585 244,588 245,589 245,593 246,594 246,596 247,597 247,599 248,600 248,602 249,603 249,605 250,606 250,608 251,609 251,611 252,612 252,614 253,615 253,618 255,620 255,622 256,623 256,624 257,625 257,626 258,627 258,629 259,630 259,631 260,632 260,634 261,635 261,636 262,637 262,638 263,639 263,640 264,641 264,642 265,643 265,644 266,645 266,646 267,647 267,648 268,649 268,650 269,651 269,652 270,653 270,654 271,655 271,656 273,658 273,659 274,660 274,661 275,662 275,663 277,665 277,666 278,667 278,668 280,670 280,671 282,673 282,674 284,676 284,677 286,679 286,680 288,682 288,683 291,686 291,687 294,690 294,691 299,696 299,697 305,703 305,704 313,712 313,713 314,713 316,715 316,716 318,718 319,718 328,727 329,727 334,732 335,732 340,737 341,737 344,740 345,740 347,742 348,742 350,744 351,744 354,747 355,747 357,749 358,749 359,750 360,750 362,752 363,752 364,753 365,753 367,755 368,755 369,756 370,756 372,758 373,758 374,759 376,759 378,761 379,761 380,762 381,762 383,764 385,764 387,766 388,766 389,767 391,767 392,768 393,768 394,769 395,769 396,770 397,770 398,771 400,771 401,772 402,772 403,773 404,773 405,774 407,774 408,775 409,775 410,776 412,776 413,777 414,777 415,778 417,778 418,779 420,779 421,780 422,780 423,781 425,781 426,782 429,782 430,783 432,783 433,784 435,784 436,785 439,785 440,786 442,786 443,787 446,787 447,788 451,788 452,789 455,789 456,790 460,790 461,791 466,791 467,792 472,792 473,793 480,793 481,794 494,794 495,795 527,795 528,794 540,794 541,793 550,793 551,792 557,792 558,791 562,791 563,790 568,790 569,789 572,789 573,788 577,788 578,787 580,787 581,786 585,786 586,785 588,785 589,784 591,784 592,783 595,783 596,782 598,782 599,781 601,781 602,780 604,780 605,779 606,779 607,778 609,778 610,777 612,777 613,776 614,776 615,775 616,775 617,774 619,774 620,773 622,773 623,772 624,772 625,771 626,771 627,770 628,770 629,769 631,769 633,767 634,767 635,766 637,766 639,764 641,764 642,763 643,763 644,762 645,762 646,761 647,761 649,759 650,759 651,758 652,758 654,756 655,756 657,754 658,754 659,753 660,753 661,752 662,752 663,751 664,751 667,748 668,748 670,746 671,746 673,744 674,744 677,741 678,741 681,738 682,738 686,734 687,734 692,729 693,729 701,721 702,721 714,709 714,708 722,700 722,699 727,694 727,693 730,690 730,689 733,686 733,685 736,682 736,681 739,678 739,677 740,676 740,675 742,673 742,672 743,671 743,670 745,668 745,667 747,665 747,664 748,663 748,662 749,661 749,660 751,658 751,657 752,656 752,655 753,654 753,653 754,652 754,651 755,650 755,649 756,648 756,647 757,646 757,645 758,644 758,643 759,642 759,640 760,639 760,638 761,637 761,636 762,635 762,633 763,632 763,631 764,630 764,629 765,628 765,626 766,625 766,624 767,623 767,621 768,620 768,619 769,618 769,616 770,615 770,613 771,612 771,610 772,609 772,606 773,605 773,603 774,602 774,599 775,598 775,596 776,595 776,592 777,591 777,587 778,586 778,582 779,581 779,578 780,577 780,573 781,572 781,568 782,567 782,563 783,562 783,557 784,556 784,550 785,549 785,542 786,541 786,524 787,523 787,496 786,495 786,485 785,484 785,476 784,475 784,469 783,468 783,463 782,462 782,459 781,458 781,453 780,452 780,449 779,448 779,445 778,444 778,441 777,440 777,436 776,435 776,433 775,432 775,430 774,429 774,427 773,426 773,423 772,422 772,420 771,419 771,416 770,415 770,414 769,413 769,412 768,411 768,409 767,408 767,407 766,406 766,404 765,403 765,401 764,400 764,399 763,398 763,397 762,396 762,394 760,392 760,390 759,389 759,388 758,387 758,386 757,385 757,384 756,383 756,382 755,381 755,380 754,379 754,378 752,376 752,375 751,374 751,373 750,372 750,371 749,370 749,369 748,368 748,367 746,365 746,364 744,362 744,361 743,360 743,359 741,357 741,356 740,355 740,354 738,352 738,351 735,348 735,347 733,345 733,344 730,341 730,340 727,337 727,336 724,333 724,332 719,327 719,326 711,318 711,317 710,317 708,315 708,314 704,310 703,310 692,299 691,299 686,294 685,294 681,290 680,290 677,287 676,287 673,284 672,284 669,281 668,281 666,279 665,279 663,277 662,277 660,275 659,275 657,273 656,273 654,271 653,271 651,269 650,269 649,268 648,268 646,266 645,266 644,265 643,265 642,264 641,264 639,262 637,262 636,261 635,261 633,259 632,259 631,258 630,258 629,257 628,257 627,256 625,256 624,255 623,255 622,254 620,254 618,252 616,252 615,251 613,251 612,250 611,250 610,249 608,249 607,248 606,248 605,247 603,247 602,246 600,246 599,245 597,245 596,244 594,244 593,243 590,243 589,242 587,242 586,241 583,241 582,240 579,240 578,239 575,239 574,238 570,238 569,237 564,237 563,236 558,236 557,235 551,235 550,234 541,234 540,233 527,233 526,232" stroke="black" stroke-width="1" /></svg>